<svg width="84" height="67" viewBox="0 0 84 67" fill="white" xmlns="http://www.w3.org/2000/svg">
<path d="M64.0529 25.1243H44.1029V32.453C44.1029 37.6486 39.8635 41.8757 34.6529 41.8757C29.4423 41.8757 25.2029 37.6486 25.2029 32.453V16.5392L16.6848 21.6431C14.1517 23.1481 12.603 25.8833 12.603 28.8148V35.005L2.10299 41.0512C0.0948684 42.2029 -0.600755 44.7679 0.567367 46.7703L11.0673 64.9089C12.2223 66.9112 14.7948 67.5918 16.803 66.4401L30.3742 58.6271H48.3029C52.936 58.6271 56.7029 54.8711 56.7029 50.2514H58.8029C61.126 50.2514 63.0029 48.38 63.0029 46.0636V37.6879H64.0529C65.7985 37.6879 67.2029 36.2875 67.2029 34.547V28.2652C67.2029 26.5246 65.7985 25.1243 64.0529 25.1243ZM83.4385 20.2297L72.9385 2.0911C71.7835 0.0887783 69.211 -0.591748 67.2029 0.559912L53.6316 8.37288H40.2179C38.6429 8.37288 37.1073 8.81784 35.7686 9.64232L31.3717 12.3775C30.1379 13.1366 29.4029 14.4845 29.4029 15.9241V32.453C29.4029 35.3453 31.7523 37.6879 34.6529 37.6879C37.5535 37.6879 39.9029 35.3453 39.9029 32.453V20.9364H64.0529C68.1085 20.9364 71.4029 24.2213 71.4029 28.2652V31.995L81.9028 25.9488C83.911 24.784 84.5935 22.2321 83.4385 20.2297Z" fill="#659DBD"/>
</svg>
